<?xml version="1.0" encoding="UTF-8" standalone="no"?><!DOCTYPE svg PUBLIC "-//W3C//DTD SVG 1.1//EN" "http://www.w3.org/Graphics/SVG/1.1/DTD/svg11.dtd"><svg width="100%" height="100%" viewBox="0 0 768 768" version="1.1" xmlns="http://www.w3.org/2000/svg" xmlns:xlink="http://www.w3.org/1999/xlink" xml:space="preserve" xmlns:serif="http://www.serif.com/" style="fill-rule:evenodd;clip-rule:evenodd;stroke-linecap:round;stroke-linejoin:round;"><path d="M383.501,169.25l-0.001,428.5l182.94,-138.37m-182.94,-290.13l0,428.5l-182.94,-138.37" style="fill:none;stroke:#fff;stroke-width:100px;"/><g id="layer1"><path id="path2413" d="M382.978,2.99c-206.993,-0 -374.988,167.995 -374.988,374.988c-0,206.994 167.995,374.988 374.988,374.988c206.994,0 374.988,-167.994 374.988,-374.988c0,-206.993 -167.994,-374.988 -374.988,-374.988Zm0,48.043c180.482,0 326.952,146.463 326.952,326.945c0,180.482 -146.47,326.952 -326.952,326.952c-180.482,0 -326.945,-146.47 -326.945,-326.952c0,-180.482 146.463,-326.945 326.945,-326.945Z" style="fill:#fff;fill-rule:nonzero;"/></g></svg>