<?xml version="1.0" encoding="UTF-8" standalone="no"?><!DOCTYPE svg PUBLIC "-//W3C//DTD SVG 1.1//EN" "http://www.w3.org/Graphics/SVG/1.1/DTD/svg11.dtd"><svg width="100%" height="100%" viewBox="0 0 15 104" version="1.1" xmlns="http://www.w3.org/2000/svg" xmlns:xlink="http://www.w3.org/1999/xlink" xml:space="preserve" xmlns:serif="http://www.serif.com/" style="fill-rule:evenodd;clip-rule:evenodd;stroke-linejoin:round;stroke-miterlimit:2;"><path d="M0,4.2l15,0l0,0.9l-15,0l0,-0.9Zm0,9.4l15,0l0,0.9l-15,0l0,-0.9Zm0,9.5l15,0l0,0.9l-15,0l0,-0.9Zm0,9.5l15,0l0,0.9l-15,0l0,-0.9Zm0,9.5l15,0l0,0.9l-15,0l0,-0.9Zm0,9.5l15,0l0,0.9l-15,0l0,-0.9Zm0,9.4l15,0l0,0.9l-15,0l0,-0.9Zm0,9.5l15,0l0,0.9l-15,0l0,-0.9Zm0,9.5l15,0l0,0.9l-15,0l0,-0.9Zm0,9.5l15,0l0,0.9l-15,0l0,-0.9Zm0,9.4l15,0l0,0.9l-15,0l0,-0.9Z" style="fill:#686868;fill-rule:nonzero;"/><path d="M6.7,0l1.5,0c0.4,0 0.8,0.4 0.8,0.8l0,102.4c0,0.4 -0.4,0.8 -0.8,0.8l-1.5,0c-0.4,0 -0.8,-0.4 -0.8,-0.8l0,-102.4c0,-0.4 0.4,-0.8 0.8,-0.8Z" style="fill:#4b4b4b;fill-rule:nonzero;"/><path d="M9,103.2l-1.7,-0.1c-0.3,0 -0.5,-0.2 -0.5,-0.5l0,-102.6l-0.1,0c-0.4,0 -0.8,0.4 -0.8,0.8l0,102.4c0,0.4 0.4,0.8 0.8,0.8l1.5,0c0.4,0 0.8,-0.4 0.8,-0.8Z" style="fill:#202324;fill-rule:nonzero;"/></svg>