<?xml version="1.0" encoding="UTF-8" standalone="no"?><!DOCTYPE svg PUBLIC "-//W3C//DTD SVG 1.1//EN" "http://www.w3.org/Graphics/SVG/1.1/DTD/svg11.dtd"><svg width="100%" height="100%" viewBox="0 0 18 21" version="1.1" xmlns="http://www.w3.org/2000/svg" xmlns:xlink="http://www.w3.org/1999/xlink" xml:space="preserve" xmlns:serif="http://www.serif.com/" style="fill-rule:evenodd;clip-rule:evenodd;stroke-linejoin:round;stroke-miterlimit:2;"><rect id="Artboard1" x="0" y="0" width="18" height="20.676" style="fill:none;"/><g id="Artboard11" serif:id="Artboard1"><path d="M17,20.676l-13.6,0c-0.6,0 -1,-0.411 -1,-0.821l0,-16.986c0,-0.492 0.5,-0.82 1,-0.82l13.6,0c0.6,0 1,0.41 1,0.82l0,16.986c0,0.41 -0.5,0.821 -1,0.821Z" style="fill:#484c4f;fill-rule:nonzero;"/><rect x="1.2" y="0.9" width="15.2" height="18.135" style="fill:#ff8300;"/><rect x="2.4" y="5.545" width="13.024" height="1.384" style="fill:#ff9729;"/><rect x="2.4" y="8.583" width="13.024" height="1.384" style="fill:#ff9729;"/><rect x="2.488" y="11.617" width="13.024" height="1.384" style="fill:#ff9729;"/><path d="M1.2,0.9l15.2,0l0,0.903l-15.2,0l0,-0.903Zm0,18.135l15.2,0l0,0.902l-15.2,0l0,-0.902Z" style="fill-rule:nonzero;"/></g></svg>